PathFileType	4	(X/Y/Z)	C:/Users/beibeiliu/ov580/test_trc/User2\sequence.10_training_dense_left.trc
DataRate	CameraRate	NumFrames	NumMarkers	Units	OrigDataRate	OrigDataStartFrame	OrigNumFrames
120	120	21	19	mm	120	74	122
Frame#	Time	ThumbCMC			ThumbMCP			ThumbIP			ThumbTip			IndexMCP			IndexPIP			IndexTip			MiddleMCP			MiddlePIP			MiddleTip			RingMCP			RingPIP			RingTip			PinkyMCP			PinkyPIP			PinkyTip			BackHand1			BackHand2			BackHand3	
		X0	Y0	Z0	X1	Y1	Z1	X2	Y2	Z2	X3	Y3	Z3	X4	Y4	Z4	X5	Y5	Z5	X6	Y6	Z6	X7	Y7	Z7	X8	Y8	Z8	X9	Y9	Z9	X10	Y10	Z10	X11	Y11	Z11	X12	Y12	Z12	X13	Y13	Z13	X14	Y14	Z14	X15	Y15	Z15	X16	Y16	Z16	X17	Y17	Z17	X18	Y18	Z18	
73	0.608333	-192.538	-8.17664	-0.159857	-179.656	-26.1975	-30.515	-179.553	-41.8869	-65.4997	-199.242	-47.4978	-84.5564	-205.856	33.5878	-73.2918	-203.044	41.8002	-101.757	-208.047	46.4761	-130.524	-224.055	19.0248	-88.8807	-223.111	-8.16204	-112.303	-221.621	-46.7969	-92.6052	-247.807	21.1702	-83.1172	-243.55	13.1385	-115.781	-237.763	-4.95608	-141.754	-274.115	15.1492	-64.5248	-285.342	23.3852	-85.3239	-287.576	38.5615	-106.961	-254.876	20.8571	-25.3112	-262.091	18.0696	5.99918	-223.645	24.6042	-8.02464	
74	0.616667	-187.126	1.30873	1.01514	-162.367	-18.8597	-22.1262	-159.825	-40.0582	-54.1711	-175.1	-53.7035	-72.995	-204.235	22.9324	-78.104	-203.703	24.9035	-106.287	-202.106	26.0057	-134.281	-216.136	3.10719	-92.5237	-205.83	-26.7416	-108.374	-193.204	-56.7071	-87.4602	-238.517	-1.22682	-84.3196	-233.276	-15.6363	-116.672	-220.482	-33.5667	-132.175	-266.099	-12.49	-65.0948	-271.002	-10.7132	-87.5948	-278.005	-2.71551	-112.271	-254.179	4.23715	-25.5013	-255.66	12.2204	5.49619	-221.721	23.632	-10.3329	
75	0.625	-186.063	23.4323	1.6568	-157.832	7.039	-15.9593	-140.992	-12.7319	-39.9462	-150.233	-36.8262	-57.7178	-207.574	19.4663	-80.0656	-203.165	15.5684	-110.216	-198.614	14.015	-135.509	-208.647	-2.86028	-89.7227	-185.885	-29.3982	-102.495	-163.548	-49.6336	-73.2061	-227.363	-19.7877	-84.7869	-211.541	-29.5818	-108.835	-188.838	-50.2162	-125.344	-246.16	-32.272	-61.0166	-254.064	-38.9434	-85.3891	-257.399	-36.8695	-111.876	-245.619	-3.03403	-31.5248	-256.335	4.81929	3.93649	-231.085	25.78	-12.4738	
76	0.633333	-200.66	45.9305	-2.56688	-166.432	44.4094	-13.077	-142.011	27.1322	-33.4494	-135.172	1.75683	-47.4545	-207.334	25.5916	-79.8847	-199.212	18.8566	-108.466	-191.678	7.76617	-131.372	-196.493	-2.64755	-87.6733	-162.86	-15.9417	-92.755	-138.076	-15.006	-63.3758	-205.735	-20.3149	-78.624	-183.013	-32.8365	-100.3	-156.091	-37.6153	-108.875	-220.933	-42.5157	-55.6482	-219.271	-52.5224	-77.4527	-221.155	-59.0589	-105.711	-237.603	-11.8115	-25.8718	-254.349	-9.58746	-1.67135	-239.397	22.9838	-21.1178	
77	0.641667	-225.896	53.1807	-5.1982	-193.798	69.3426	-17.0677	-159.894	69.8233	-31.7525	-142.294	48.1268	-39.8884	-208.753	23.798	-80.5888	-195.204	20.2675	-107.137	-180.476	12.3378	-129.753	-186.731	9.29108	-82.333	-151.605	15.8015	-84.8037	-132.279	28.3225	-52.0774	-183.522	-12.7684	-72.5987	-156.129	-12.8575	-89.3982	-128.13	-3.69542	-98.5363	-191.052	-33.2046	-49.3689	-180.772	-44.5945	-69.5948	-174.965	-51.3585	-89.7945	-225.401	-16.5877	-26.4858	-243.074	-16.2971	1.43201	-244.042	14.8103	-23.8801	
78	0.65	-245.012	56.028	-9.05366	-217.441	78.7751	-23.2339	-186.743	87.7742	-35.4083	-163.577	71.3556	-40.6927	-212.487	26.5153	-83.841	-200.228	26.7992	-106.668	-182.354	24.0314	-127.393	-186.417	16.684	-78.1411	-153.277	41.2448	-80.7766	-144.63	62.3023	-52.3982	-179.604	-0.292095	-68.4596	-151.945	6.41823	-86.3114	-131.19	22.2666	-96.1169	-178.132	-17.9587	-41.596	-161.864	-29.4426	-64.9852	-153.154	-38.1056	-83.0199	-218.642	-10.4064	-22.1745	-234.982	-16.4278	1.53297	-247.155	12.9031	-23.3344	
79	0.658333	-255.512	52.004	-12.3879	-237.62	81.8159	-25.9729	-209.079	99.2691	-42.2616	-181.126	86.3021	-48.1478	-221.846	27.0823	-84.0593	-205.901	28.7329	-111.892	-194.274	30.4173	-131.551	-193.129	26.1715	-81.9992	-170.425	53.23	-87.2339	-160.938	76.778	-57.2428	-181.229	11.2048	-75.2502	-159.18	21.6932	-89.1828	-142.975	41.5089	-102.648	-176.25	-7.52787	-44.946	-159.436	-14.4468	-61.8064	-147.39	-20.7466	-82.1403	-216.309	-8.21077	-21.9937	-233.969	-16.0401	-0.0589992	-251.241	7.57371	-24.9343	
80	0.666667	-264.576	49.2633	-13.6983	-253.271	83.1073	-26.7851	-224.412	97.0852	-45.9156	-197.48	90.7226	-51.1956	-232.957	26.283	-90.884	-219.172	29.0646	-115.48	-208.222	32.9986	-139.067	-204.991	28.615	-86.1703	-181.877	58.4035	-91.6581	-178.585	83.5697	-64.8424	-193.657	15.2876	-76.6611	-176.041	28.2286	-94.7044	-157.744	52.0295	-110.938	-179.595	-5.10117	-49.5861	-167.914	-5.4101	-68.8308	-153.659	-14.5235	-87.1848	-219.45	-8.62477	-29.4628	-238.29	-12.9068	0.209505	-258.415	6.46319	-24.2843	
81	0.675	-278.639	47.5512	-15.8806	-264.026	78.185	-33.8341	-239.357	94.4071	-54.8171	-211.399	87.293	-61.5841	-249.615	20.5851	-92.2048	-237.098	21.4661	-116.565	-223.305	23.7068	-142.577	-222.9	24.0934	-93.3028	-202.719	54.0074	-102.339	-192.994	79.2453	-73.0736	-205.564	9.21312	-81.8178	-188.838	20.9176	-102.337	-175.25	47.1284	-121.963	-193.827	-5.45182	-58.8612	-180.138	-10.6931	-77.1557	-164.691	-20.2446	-95.3635	-228.703	-11.0201	-29.1688	-239.832	-16.7398	-0.387608	-266.237	2.33964	-25.3591	
82	0.683333	-290.053	36.0794	-19.7774	-280.087	64.6476	-38.463	-256.388	80.516	-66.6328	-231.487	71.6206	-76.0852	-271.516	2.76601	-96.4389	-263.217	4.31126	-122.176	-249.558	5.21266	-146.566	-243.769	5.35117	-96.9272	-224.647	38.9632	-112.077	-217.115	66.3944	-86.0795	-224.849	-6.13878	-90.4592	-209.986	4.82774	-113.06	-203.089	28.5241	-134.402	-209.515	-15.1164	-61.009	-195.908	-24.5489	-83.2639	-184.835	-32.1449	-103.154	-243.274	-19.4463	-35.4509	-251.155	-23.4414	-1.89793	-277.552	-10.5638	-22.8591	
83	0.691667	-300.241	24.3691	-19.2335	-294.532	53.8191	-46.9365	-275.635	64.0663	-75.6909	-251.988	59.8284	-93.1888	-295.05	-15.8592	-95.2373	-288.603	-17.166	-124.438	-281.178	-15.5611	-150.609	-264.287	-13.9233	-104.557	-248.61	15.3451	-120.428	-239.627	45.6887	-100.696	-248.444	-25.5721	-94.5416	-237.73	-16.8483	-121.447	-228.958	4.42494	-145.918	-226.396	-32.7522	-67.8225	-215.828	-43.2196	-89.9188	-212.111	-52.6475	-115.521	-254.392	-32.6613	-36.4921	-256.989	-32.6759	-2.33465	-291.103	-21.752	-23.3991	
84	0.7	-307.445	22.3559	-25.3482	-297.927	47.5337	-53.885	-285.724	60.8765	-85.194	-265.096	57.2833	-104.514	-310.053	-22.9285	-93.7826	-303.582	-23.8482	-126.641	-301.077	-21.7404	-150.11	-285.164	-20.3024	-105.481	-267.796	3.05382	-125.246	-255.51	37.8893	-108.319	-264.203	-35.2871	-98.0888	-258.641	-24.7265	-127.982	-252.037	-6.10221	-151.556	-245.849	-43.3802	-73.9759	-236.077	-54.6003	-95.9448	-237.182	-63.8987	-119.69	-266.254	-41.0189	-37.1761	-267.097	-34.6984	-1.30143	-301.912	-24.3487	-21.7482	
85	0.708333	-304.906	29.2922	-25.0422	-289.677	43.2221	-57.6502	-278.193	51.6978	-88.3833	-265.883	51.7139	-113.462	-320.095	-16.8395	-95.424	-316.308	-17.0122	-120.95	-310.637	-16.3858	-149.577	-301.269	-20.521	-102.757	-280.379	4.18192	-125.697	-259.781	29.5946	-110.387	-281.65	-38.4355	-98.9472	-278.954	-28.0635	-127.249	-266.02	-12.4574	-153.129	-263.602	-52.4074	-76.0659	-264.175	-59.8309	-99.1839	-265.934	-70.7818	-126.734	-280.105	-40.3523	-34.8027	-281.197	-35.2743	-4.77709	-311.274	-16.4826	-17.7168	
86	0.716667	-290.442	35.698	-24.3332	-272.358	40.329	-60.048	-261.085	44.0143	-91.3314	-253.57	35.1084	-120.174	-329.929	5.00707	-90.8973	-330.882	5.70295	-121.395	-325.096	1.77905	-149.782	-314.029	-9.35206	-99.1942	-287.794	3.9482	-121.757	-252.025	16.806	-99.9973	-308.934	-28.028	-96.567	-299.991	-24.3491	-128.024	-287.055	-15.7458	-149.552	-299.442	-46.7662	-73.8721	-308.392	-52.4501	-101.897	-312.654	-59.9291	-125.036	-302.949	-33.1433	-31.71	-302.316	-28.6867	-3.03932	-320.808	2.08604	-16.1289	
87	0.725	-271.113	36.9091	-23.4479	-255.393	31.3425	-60.3848	-251.102	23.7835	-92.162	-244.708	18.7476	-118.616	-328.516	34.882	-87.5819	-330.606	33.5736	-114.218	-331.123	30.2776	-143.321	-317.542	17.3782	-97.5984	-286.786	11.5333	-116.906	-256.646	1.8551	-95.214	-328.88	-6.70852	-92.3898	-320.994	-3.26022	-121.304	-303.372	-2.81075	-148.164	-329.042	-26.2296	-68.5976	-344.751	-28.5751	-95.2382	-353.096	-28.0782	-117.808	-324.218	-13.4151	-28.1653	-314.616	-13.7349	4.43715	-315.756	23.6878	-11.9973	
88	0.733333	-264.868	29.1821	-24.0724	-255.797	17.3247	-58.3044	-253.201	11.643	-96.4216	-258.239	1.0377	-119.567	-319.634	52.4946	-79.301	-325.298	55.4206	-111.774	-330.958	50.4576	-134.71	-320.836	29.5082	-94.7373	-295.808	9.92709	-113.393	-271.196	-7.9144	-94.2035	-339.439	15.0281	-85.0102	-333.348	15.8339	-114.551	-320.447	8.31411	-142.137	-347.726	-1.12328	-61.2448	-362.828	4.23407	-82.809	-377.921	7.4999	-102.955	-332.168	8.99884	-21.6309	-325.24	2.32805	7.52432	-308.743	37.4344	-11.9727	
89	0.741667	-269.493	18.9472	-23.5933	-267.244	7.12681	-58.4649	-270.733	1.3867	-93.8289	-273.686	-5.61639	-116.305	-315.651	60.8247	-76.3931	-322.259	64.7439	-106.427	-328.716	67.6625	-132.701	-326.202	42.0991	-89.77	-309.247	18.2943	-112.468	-292.602	-11.8373	-95.6048	-344.903	34.9275	-80.8919	-345.217	31.6648	-110.577	-333.877	23.0081	-137.701	-360.569	15.5812	-53.1459	-374.592	29.8743	-74.3372	-387.34	43.8391	-92.8673	-340.346	20.3637	-17.8361	-332.748	12.2405	12.5608	-306.429	41.9568	-7.36048	
90	0.75	-271.476	14.0907	-22.014	-279.522	4.4986	-58.0399	-281.525	2.34226	-96.7374	-292.785	0.403536	-118.603	-312.338	69.495	-69.3117	-317.79	76.3029	-96.1089	-326.521	80.4414	-125.966	-325.905	55.987	-79.3675	-321.415	34.0883	-109.472	-309.449	-5.12571	-99.0983	-345.407	51.8227	-72.1069	-348.015	51.1623	-104.634	-344.722	40.2452	-137.024	-367.477	38.9811	-48.3077	-374.599	54.165	-63.9248	-385.672	70.4392	-78.3125	-337.493	34.6068	-13.6298	-335.709	21.735	13.8037	-301.894	45.5298	-1.68473	
91	0.758333	-269.906	17.235	-21.819	-276.268	10.8087	-59.2204	-281.22	11.6913	-93.6389	-290.521	12.446	-115.839	-299.351	84.2451	-67.221	-306.563	91.2541	-90.3695	-312.665	98.2342	-117.093	-314.31	70.2418	-73.6772	-313.687	46.3192	-108.062	-311.96	8.80722	-106.83	-337.457	71.9334	-71.147	-341.167	71.731	-97.4902	-338.631	64.3896	-128.04	-357.102	53.6926	-41.9123	-369.808	75.0518	-57.4928	-379.722	96.0351	-68.5798	-332.598	47.6077	-9.75212	-329.462	32.8696	17.0063	-297.053	49.1795	-0.302935	
92	0.766667	-256.701	20.2814	-18.2826	-263.886	18.5623	-54.066	-264.617	26.7528	-91.7172	-271.52	29.3417	-114.084	-278.982	90.5613	-56.3113	-282.629	104.32	-83.4238	-287.922	111.02	-106.601	-296.866	79.9529	-70.5128	-294.805	60.6119	-103.195	-290.66	22.6069	-112.405	-317.589	83.8396	-64.9373	-315.942	88.3235	-94.9402	-309.485	85.7887	-121.713	-340.854	67.8946	-40.3407	-347.519	89.2469	-54.0255	-353.917	113.124	-65.4101	-320.206	53.1837	-7.81333	-314.663	34.1959	20.4634	-284.928	49.5976	6.66528	
93	0.775	-237.084	19.483	-13.8833	-238.722	21.6436	-53.4248	-238.097	26.1995	-84.8534	-235.3	28.3762	-110.409	-247.775	91.861	-51.7857	-249.391	103.355	-78.1965	-251.867	114.339	-105.975	-264.11	80.8289	-71.695	-261.79	64.3917	-101.155	-263.741	27.7324	-113.221	-288.148	87.0458	-67.1344	-283.603	91.0582	-91.6415	-272.591	90.1182	-122.703	-311.484	72.5125	-43.1509	-317.983	94.4914	-57.3904	-324.154	117.496	-69.0397	-293.98	57.1882	-7.47691	-294.15	36.4407	16.9331	-262.135	51.5695	9.39942	
